<?xml version="1.0"?>
<svg xmlns="http://www.w3.org/2000/svg" xmlns:xlink="http://www.w3.org/1999/xlink" version="1.1" id="Capa_1" x="0px" y="0px" viewBox="0 0 215.254 215.254" style="enable-background:new 0 0 215.254 215.254;" xml:space="preserve" width="512px" height="512px"><g><path d="M107.627,204.522c-51.61,0-93.599-38.916-93.599-86.75c0-11.942,2.563-23.478,7.62-34.33C8.413,77.087,0,63.837,0,48.982  c0-21.091,17.159-38.25,38.25-38.25c16.461,0,30.978,10.52,36.209,25.899c10.587-3.723,21.731-5.609,33.168-5.609  c11.436,0,22.58,1.886,33.168,5.609c5.231-15.38,19.749-25.899,36.209-25.899c21.091,0,38.25,17.159,38.25,38.25  c0,14.855-8.413,28.105-21.649,34.46c5.059,10.853,7.621,22.389,7.621,34.33C201.226,165.606,159.237,204.522,107.627,204.522z   M38.25,15.732C19.916,15.732,5,30.648,5,48.982c0,13.696,8.226,25.822,20.956,30.893c0.652,0.26,1.164,0.781,1.413,1.437  c0.248,0.656,0.21,1.386-0.105,2.012c-5.465,10.833-8.235,22.422-8.235,34.449c0,45.077,39.745,81.75,88.599,81.75  s88.599-36.673,88.599-81.75c0-12.025-2.771-23.615-8.236-34.449c-0.315-0.626-0.354-1.356-0.105-2.012  c0.249-0.656,0.762-1.177,1.413-1.437c12.73-5.071,20.957-17.197,20.957-30.893c0-18.334-14.916-33.25-33.25-33.25  c-15.109,0-28.335,10.196-32.163,24.794c-0.18,0.687-0.644,1.265-1.275,1.589c-0.631,0.325-1.37,0.365-2.036,0.111  c-10.762-4.117-22.168-6.205-33.902-6.205c-11.735,0-23.142,2.088-33.903,6.205c-0.663,0.253-1.404,0.214-2.036-0.111  c-0.632-0.324-1.096-0.902-1.275-1.59C66.585,25.928,53.359,15.732,38.25,15.732z M107.38,190.982c-29.5,0-53.5-19.178-53.5-42.75  s24-42.75,53.5-42.75s53.5,19.178,53.5,42.75c0,18.685-15.078,34.608-36.024,40.408c-0.414,0.25-0.911,0.372-1.353,0.358  C118.413,190.287,112.996,190.982,107.38,190.982z M96.251,184.979c3.574,0.656,7.301,1.003,11.129,1.003s7.554-0.347,11.128-1.002  l-11.128-11.128L96.251,184.979z M109.88,169.28l14.352,14.352c18.462-5.34,31.648-19.194,31.648-35.4  c0-20.815-21.757-37.75-48.5-37.75s-48.5,16.935-48.5,37.75c0,16.205,13.188,30.058,31.647,35.4l14.353-14.352v-19.401  c-7.311-0.964-12.905-6.084-12.905-12.236c0-6.837,6.911-12.399,15.405-12.399s15.404,5.563,15.404,12.399  c0,6.152-5.596,11.272-12.904,12.236V169.28z M107.38,130.243c-5.641,0-10.405,3.389-10.405,7.399s4.765,7.399,10.405,7.399  c5.64,0,10.404-3.389,10.404-7.399S113.02,130.243,107.38,130.243z M141.938,101.173c-6.479,0-11.75-5.271-11.75-11.75  s5.271-11.75,11.75-11.75s11.75,5.271,11.75,11.75S148.416,101.173,141.938,101.173z M141.938,82.673c-3.722,0-6.75,3.028-6.75,6.75  s3.028,6.75,6.75,6.75s6.75-3.028,6.75-6.75S145.659,82.673,141.938,82.673z M72.821,101.173c-6.479,0-11.75-5.271-11.75-11.75  s5.271-11.75,11.75-11.75s11.75,5.271,11.75,11.75S79.3,101.173,72.821,101.173z M72.821,82.673c-3.722,0-6.75,3.028-6.75,6.75  s3.028,6.75,6.75,6.75s6.75-3.028,6.75-6.75S76.543,82.673,72.821,82.673z M183.182,73.618c-0.763,0-1.498-0.35-1.979-0.973  c-7.218-9.357-17.014-17.355-28.329-23.13c-0.896-0.457-1.43-1.406-1.356-2.408c0.964-13.247,12.132-23.624,25.424-23.624  c14.061,0,25.5,11.439,25.5,25.5c0,11.371-7.641,21.463-18.582,24.542C183.635,73.587,183.407,73.618,183.182,73.618z   M156.685,45.863c10.766,5.744,20.175,13.421,27.381,22.34c7.951-2.949,13.375-10.631,13.375-19.221c0-11.304-9.196-20.5-20.5-20.5  C166.799,28.482,158.195,35.995,156.685,45.863z M30.847,73.236c-0.271,0-0.545-0.044-0.812-0.135  c-10.302-3.536-17.223-13.228-17.223-24.119c0-14.061,11.439-25.5,25.5-25.5c13.093,0,23.994,9.807,25.358,22.813  c0.109,1.044-0.445,2.045-1.389,2.507c-11.774,5.756-21.964,13.874-29.466,23.474C32.334,72.893,31.602,73.236,30.847,73.236z   M38.313,28.482c-11.304,0-20.5,9.196-20.5,20.5c0,8.173,4.849,15.507,12.23,18.758c7.477-9.116,17.237-16.885,28.408-22.612  C56.64,35.526,48.264,28.482,38.313,28.482z" data-original="#000000" class="active-path" data-old_color="#000000" fill="#1ABC9C"/></g> </svg>
