<?xml version="1.0"?>
<svg xmlns="http://www.w3.org/2000/svg" xmlns:xlink="http://www.w3.org/1999/xlink" version="1.1" id="Layer_1" x="0px" y="0px" viewBox="0 0 511.999 511.999" style="enable-background:new 0 0 511.999 511.999;" xml:space="preserve" width="512px" height="512px"><g><g>
	<g>
		<path d="M267.649,436.986h-9.302l-12.941-85.728c-0.349-2.312-1.64-4.377-3.568-5.701l-28.442-19.433V279.86    c0-3.263-1.878-6.232-4.824-7.631l-67.59-32.106c-2.687-1.276-5.841-1.047-8.312,0.602l-20.188,13.458L56.48,209.068    c-1.858-1.497-4.263-2.139-6.621-1.765L7.13,214.062c-4.609,0.729-7.754,5.056-7.025,9.666c0.729,4.608,5.05,7.76,9.666,7.025    l39.027-6.174l76.449,61.82c1.57,1.284,3.463,1.91,5.346,1.91c2.447,0,4.874-1.057,6.544-3.098    c2.955-3.612,2.422-8.935-1.19-11.89l-9.747-7.975l11.857-7.904l58.44,27.76v121.39c0,4.666,3.782,8.449,8.449,8.449    s8.449-3.783,8.449-8.449V346.51l15.847,10.896l12.014,79.581H8.45c-4.666-0.001-8.449,3.782-8.449,8.448s3.782,8.449,8.449,8.449    h259.199c4.667,0,8.449-3.783,8.449-8.449S272.317,436.986,267.649,436.986z" data-original="#000000" class="active-path" data-old_color="#1abc9c" fill="#1abc9c"/>
	</g>
</g><g>
	<g>
		<path d="M503.549,442.62c-9.492,0-13.771-2.103-19.186-4.765c-3.919-1.928-8.175-4.015-14.168-5.29l4.481-10.94l20.018-48.865    c1.397-3.412,0.421-7.338-2.414-9.697c-2.834-2.36-6.873-2.607-9.975-0.613l-54.222,34.852c-2.651,1.703-4.132,4.741-3.845,7.877    c0.287,3.137,2.296,5.855,5.211,7.049l26.385,10.809l-3.492,8.526c-10.033,0.78-15.966,3.682-21.276,6.292    c-5.418,2.662-9.695,4.765-19.186,4.765c-9.494,0-13.771-2.103-19.186-4.766c-6.194-3.046-13.215-6.499-26.631-6.499    c-13.422,0-20.445,3.453-26.641,6.5c-5.417,2.663-9.694,4.765-19.186,4.765c-9.503,0-13.774-2.102-19.183-4.764    c-4.187-2.06-9.251-0.337-11.312,3.851c-2.058,4.185-0.335,9.25,3.853,11.311c6.192,3.047,13.211,6.501,26.644,6.501    c13.422,0,20.445-3.453,26.641-6.5c5.417-2.663,9.694-4.765,19.186-4.765c9.486,0,13.761,2.102,19.174,4.764    c6.197,3.047,13.22,6.501,26.643,6.501c13.42,0,20.443-3.452,26.64-6.498c5.42-2.663,9.7-4.768,19.2-4.768    c9.492,0,13.771,2.103,19.186,4.765c6.196,3.047,13.219,6.5,26.641,6.5c4.667,0,8.449-3.783,8.449-8.449    C511.998,446.403,508.216,442.62,503.549,442.62z M462.245,407.398l-11.37-4.657l18.023-11.584L462.245,407.398z" data-original="#000000" class="active-path" data-old_color="#1abc9c" fill="#1abc9c"/>
	</g>
</g><g>
	<g>
		<path d="M503.55,469.092H8.45c-4.667,0-8.449,3.783-8.449,8.449c0,4.666,3.782,8.449,8.449,8.449H503.55    c4.667,0,8.449-3.783,8.449-8.449C511.999,472.875,508.216,469.092,503.55,469.092z" data-original="#000000" class="active-path" data-old_color="#1abc9c" fill="#1abc9c"/>
	</g>
</g><g>
	<g>
		<path d="M146.675,406.339l-16.897-35.485c-1.24-2.602-3.72-4.394-6.58-4.751l-21.968-2.747l-13.414-35.771    c-1.106-2.952-3.765-5.041-6.895-5.421l-55.761-6.759c-4.625-0.561-8.844,2.738-9.405,7.371c-0.562,4.632,2.739,8.844,7.371,9.405    l50.669,6.142l13.406,35.75c1.103,2.94,3.746,5.027,6.863,5.417l22.446,2.806l14.908,31.308c1.448,3.041,4.477,4.818,7.634,4.818    c1.218,0,2.455-0.265,3.628-0.822C146.891,415.594,148.681,410.552,146.675,406.339z" data-original="#000000" class="active-path" data-old_color="#1abc9c" fill="#1abc9c"/>
	</g>
</g><g>
	<g>
		<path d="M453.308,121.186c-12.303,0-23.289,5.747-30.416,14.696c-7.125-8.949-18.112-14.696-30.415-14.696    c-4.667,0-8.449,3.783-8.449,8.449c0,4.666,3.782,8.449,8.449,8.449c12.112,0,21.966,9.854,21.966,21.967    c0,4.666,3.782,8.449,8.449,8.449c4.667,0,8.449-3.783,8.449-8.449c0-12.113,9.854-21.967,21.967-21.967    c4.667,0,8.449-3.783,8.449-8.449C461.757,124.969,457.975,121.186,453.308,121.186z" data-original="#000000" class="active-path" data-old_color="#1abc9c" fill="#1abc9c"/>
	</g>
</g><g>
	<g>
		<path d="M389.097,166.81c-12.303,0-23.289,5.747-30.416,14.696c-7.125-8.949-18.112-14.696-30.415-14.696    c-4.667,0-8.449,3.783-8.449,8.449s3.782,8.449,8.449,8.449c12.112,0,21.966,9.854,21.966,21.967c0,4.666,3.782,8.449,8.449,8.449    s8.449-3.783,8.449-8.449c0-12.112,9.854-21.967,21.967-21.967c4.667,0,8.449-3.783,8.449-8.449S393.764,166.81,389.097,166.81z" data-original="#000000" class="active-path" data-old_color="#1abc9c" fill="#1abc9c"/>
	</g>
</g><g>
	<g>
		<path d="M174.369,26.009c-35.872,0-65.055,29.184-65.055,65.057c0,35.873,29.184,65.057,65.055,65.057    c35.873,0,65.057-29.184,65.057-65.057C239.426,55.193,210.242,26.009,174.369,26.009z M174.369,139.225    c-26.554,0-48.157-21.603-48.157-48.158c0-26.555,21.602-48.158,48.157-48.158c26.554,0,48.158,21.603,48.158,48.158    C222.527,117.622,200.923,139.225,174.369,139.225z" data-original="#000000" class="active-path" data-old_color="#1abc9c" fill="#1abc9c"/>
	</g>
</g></g> </svg>
