<?xml version="1.0"?>
<svg xmlns="http://www.w3.org/2000/svg" xmlns:xlink="http://www.w3.org/1999/xlink" width="512px" height="512px" viewBox="0 0 61 52" version="1.1"><g><title class="active-path" style="fill:#1ABC9C" data-old_color="#000000">040 - Guide dog access</title><desc class="active-path" style="fill:#1ABC9C" data-old_color="#000000">Created with Sketch.</desc><defs class="active-path" style="fill:#1ABC9C" data-old_color="#000000"/><g id="Page-1" stroke="none" stroke-width="1" fill="none" fill-rule="evenodd"><g id="040---Guide-dog-access" fill="#000000" fill-rule="nonzero"><path d="M56.832,28.445 C56.532,27.998 56.232,27.48 55.916,26.926 C54.094,23.77 51.34,19 44,19 C42.0410949,18.9766982 40.0825609,19.0712021 38.135,19.283 C37.1450992,19.4033025 36.1480139,19.4544265 35.151,19.436 L48.333,5.943 C49.4770285,4.76249843 49.4623374,2.88247882 48.3,1.72 C47.747516,1.13470266 46.970435,0.814621038 46.166,0.841 C45.3646834,0.842093967 44.5977382,1.16661242 44.039,1.741 L27.368,18.712 C22.6346893,17.6426411 18.7416071,14.2921696 16.979,9.771 C16.864,8.922 16.1,6 11,6 C7.87741943,5.84998285 5.21667867,8.24304345 5.036,11.364 L1.553,13.105 C1.27671724,13.243443 1.07996278,13.5018448 1.02,13.805 C0.716748263,15.3946904 1.06676508,17.0395171 1.991,18.368 C3.00160795,19.5047359 4.48279981,20.1077055 6,20 L10.034,20 C10.1361831,21.753619 10.3732168,23.4967693 10.743,25.214 C11.0481485,26.6297938 11.4651229,28.0191512 11.99,29.369 L11.998,29.388 C12.8613854,31.7147396 14.254869,33.8083887 16.068,35.503 C16.5466472,38.3143794 16.8578621,41.1517103 17,44 C16.9566685,45.5878554 16.3518491,47.1089389 15.293,48.293 L14.293,49.293 C14.1054506,49.4804927 14.0000566,49.7348052 14,50 L14,51 C14,51.5522847 14.4477153,52 15,52 L18,52 C18.1540792,52.0016087 18.3064226,51.9673742 18.445,51.9 L18.517,51.863 C18.663262,51.9500892 18.8297944,51.9973251 19,52 L22,52 C22.1547301,52.0016999 22.3077438,51.9674687 22.447,51.9 C23.207,51.519 27,49.5 27,47 L27,36.893 C27.425,36.786 27.846,36.693 28.279,36.561 C29.6,36.176 30.959,35.723 32.273,35.284 C34.9348257,34.289206 37.6871246,33.5557509 40.491,33.094 C40.9335107,33.0484919 41.349511,33.3123172 41.497,33.732 C42.6554579,36.700695 44.7600064,39.2048547 47.485,40.857 C51.657,43.36 51.991,45 52,45 L52,47.585 L50.293,49.292 C50.1052054,49.4797377 49.9997912,49.7344587 50,50 L50,51 C50,51.5522847 50.4477153,52 51,52 L56,52 C57.1045695,52 58,51.1045695 58,50 L58,42.41 C57.9990805,41.8815346 57.789559,41.3748016 57.417,41 L54.527,38.109 C53.8062381,37.3660176 53.505839,36.311241 53.727,35.3 C53.8223006,34.8008157 53.8731663,34.2941664 53.879,33.786 C56.65,37.436 58.671,38.037 59.684,38.037 C59.8972306,38.0400634 60.109579,38.0090045 60.313,37.945 C60.5742146,37.8578533 60.7879332,37.6668485 60.9037603,37.4170253 C61.0195875,37.167202 61.0272714,36.880672 60.925,36.625 C59.791481,33.7888231 58.4223603,31.0525887 56.832,28.445 Z M45.469,3.14 C45.6555536,2.94838494 45.9115705,2.8402088 46.179,2.84 C46.5827087,2.83762855 46.9482453,3.07824082 47.1056917,3.44998938 C47.2631382,3.82173794 47.181608,4.25169614 46.899,4.54 L32.18,19.616 L27.3,24.4 C27.2066047,24.4919453 27.1321941,24.6013527 27.081,24.722 C27.0302001,24.8433007 27.004026,24.9734915 27.004,25.105 L27.004,34.827 C26.592,34.937 26.177,35.054 25.775,35.146 C25.503,35.211 25.253,35.26 25.004,35.31 L25.004,29 C25.004,28.4477153 24.5562847,28 24.004,28 L13.632,28 C13.4006667,27.358 13.1933333,26.6913333 13.01,26 L22.39,26 C22.411,26 22.429,25.989 22.45,25.988 C22.6569924,25.9887201 22.8563672,25.9099724 23.007,25.768 C23.035304,25.7515191 23.0626788,25.7334918 23.089,25.714 L23.095,25.708 L28.4,20.511 L45.469,3.14 Z M3.543,17.105 C3.04952413,16.3883699 2.83148149,15.5176198 2.929,14.653 L6.447,12.9 C6.78766936,12.7297741 7.00207881,12.3808256 7,12 C7,11.837 7.046,8 11,8 C14.794,8 14.99,9.815 15,10 C15.0002448,10.1074429 15.0178032,10.2141442 15.052,10.316 C16.8665776,15.124409 20.7940854,18.8295006 25.7,20.361 L21.982,24 L12.539,24 C12.2771858,22.6126528 12.1064873,21.209652 12.028,19.8 C13.6229086,19.1748724 14.9612919,18.0316113 15.828,16.554 C16.134518,16.0944991 16.0105009,15.473518 15.551,15.167 C15.0914991,14.860482 14.470518,14.9844991 14.164,15.444 C13.5380916,16.5458788 12.5662196,17.4105462 11.399,17.904 C10.446,16.371 10.767,13.257 10.976,12.194 C11.0442005,11.6727856 10.6972249,11.1877459 10.1819177,11.0839468 C9.66661046,10.9801477 9.1589085,11.2930284 9.02,11.8 C8.59878003,13.8551891 8.67731577,15.9814843 9.249,18 L6,18 C5.08782842,18.088318 4.18465336,17.7593226 3.543,17.105 Z M17.753,50 L16.414,50 L16.707,49.707 C18.1449909,48.1500155 18.9609952,46.1190794 19,44 C18.844827,40.927532 18.5062237,37.8670794 17.986,34.835 C17.9727495,34.7897807 17.9560334,34.74565 17.936,34.703 C17.9186971,34.6338353 17.8938829,34.5667701 17.862,34.503 C17.823568,34.4422991 17.7786361,34.3859667 17.728,34.335 C17.7013022,34.2977947 17.6725928,34.2620748 17.642,34.228 C16.3027518,33.0545017 15.2230801,31.6144853 14.472,30 L23,30 L23,35.6 C22.661,35.627 22.327,35.644 22,35.644 C21.4477153,35.644 21,36.0917153 21,36.644 L21,47 C20.955141,47.3156225 20.8156778,47.6102385 20.6,47.845 C19.7823314,48.7220902 18.8191385,49.4511667 17.753,50 Z M21.753,50 L21.27,50 C21.5955206,49.7226517 21.8966264,49.4178657 22.17,49.089 C22.6750942,48.5066566 22.9677044,47.7701954 23,47 L23,37.6 C23.375,37.574 23.751,37.535 24.122,37.481 C24.402,37.446 24.697,37.398 25,37.345 L25,47 C25,47.856 23.18,49.244 21.757,50 L21.753,50 Z M52.883,28.543 C52.8582142,28.5101134 52.8315007,28.478725 52.803,28.449 C52.7747106,28.3939341 52.7412252,28.3416968 52.703,28.293 C52.4015268,27.9879975 51.9384318,27.9107311 51.5542675,28.1013366 C51.1701033,28.291942 50.9514959,28.7074392 51.012,29.132 L51.012,29.153 C51.0182484,29.2140917 51.0306445,29.274397 51.049,29.333 L51.069,29.391 C51.7409436,31.1494431 51.9786709,33.0440577 51.762,34.914 C51.40847,36.5795612 51.9126913,38.3114846 53.105,39.527 L56,42.41 L56,50 L52.414,50 L53.707,48.707 C53.8945494,48.5195073 53.9999434,48.2651948 54,48 L54,45 C54,44.571 53.735,42.275 48.516,39.143 C46.1720538,37.7218328 44.3614411,35.5682159 43.364,33.015 C42.8918303,31.7422486 41.6129923,30.9551444 40.264,31.107 C37.321086,31.5803056 34.4323086,32.3440362 31.64,33.387 C30.768,33.678 29.881,33.967 28.999,34.244 L28.999,25.53 L33.26,21.355 C34.952819,21.4981701 36.6557579,21.4703629 38.343,21.272 C40.2215137,21.0680719 42.1105868,20.9772414 44,21 C50.185,21 52.4,24.84 54.184,27.926 C54.526,28.52 54.848,29.074 55.168,29.555 C56.3391413,31.4302069 57.3657764,33.3918788 58.239,35.423 C57.066,34.623 55.244,32.779 52.883,28.543 Z" id="Shape" data-original="#000000" class="active-path" data-old_color="#000000" fill="#1abc9c"/></g></g></g> </svg>
