<?xml version="1.0"?>
<svg xmlns="http://www.w3.org/2000/svg" xmlns:xlink="http://www.w3.org/1999/xlink" version="1.1" id="Capa_1" x="0px" y="0px" viewBox="0 0 295.205 295.205" style="enable-background:new 0 0 295.205 295.205;" xml:space="preserve" width="512px" height="512px"><g><g>
	<path d="M116.714,112.271c11.006-11.062,24.591-20.054,33.786-25.521c1.592-0.947,3.308-1.651,5.088-2.11   c-13.208-15.663-38.62-27.892-50.306-32.952c-1.476-0.639-3.166-0.546-4.563,0.251c-1.396,0.796-2.34,2.203-2.541,3.799   c-0.986,7.793-2.282,21.473-1.55,35.352C104.4,97.361,111.617,104.501,116.714,112.271z" data-original="#000000" class="active-path" data-old_color="#1abc9c" fill="#1abc9c"/>
	<path d="M150.487,226.251l-2.278,8.322c-0.948,3.456,1.087,7.025,4.544,7.971c3.457,0.947,7.024-1.088,7.973-4.543l3.18-11.616   c-1.901,0.232-3.822,0.352-5.848,0.352C155.336,226.737,152.832,226.524,150.487,226.251z" data-original="#000000" class="active-path" data-old_color="#1abc9c" fill="#1abc9c"/>
	<path d="M294.784,109.567c0.64-1.476,0.547-3.166-0.25-4.563c-0.796-1.398-2.204-2.341-3.799-2.542   c-14.346-1.815-48.635-4.696-67.399,6.001c-3.06,1.746-5.93,3.65-8.594,5.677c4.783-6.298,8.724-14.212,11.181-23.183   c5.361-19.584-5.128-50.039-10.225-62.987c-0.59-1.499-1.853-2.632-3.407-3.058c-1.554-0.426-3.219-0.095-4.49,0.895   c-10.981,8.546-35.521,29.411-40.885,48.996c-0.9,3.287-1.551,6.551-1.976,9.757c0.99,0.235,1.968,0.528,2.923,0.921   c5.626,2.317,9.898,7.217,11.428,13.111c3.917,15.115,9.188,42.135,3.625,62.607c7.256,2.523,14.085,5.778,19.587,8.721   c5.461,2.922,9.233,8.328,10.09,14.452c0.811,5.762-1.03,11.613-4.944,15.877c2.453,2.331,5.151,4.577,8.337,6.414   c12.37,7.129,34.392,5.893,45.449,4.696c1.623-0.176,3.063-1.116,3.879-2.53c0.815-1.415,0.906-3.134,0.244-4.626   c-3.985-8.987-12.242-25.4-22.649-34.012c4.134-1.467,8.294-3.352,12.38-5.682C274.051,153.812,289.038,122.836,294.784,109.567z" data-original="#000000" class="active-path" data-old_color="#1abc9c" fill="#1abc9c"/>
	<path d="M196.428,190.281c1.021-0.991,1.509-2.411,1.311-3.821c-0.197-1.41-1.057-2.642-2.313-3.313   c-7.564-4.046-22.049-10.91-33.828-11.252c2.057-3.227,3.908-6.755,5.47-10.55c7.173-17.427,0.867-46.777-2.298-58.989   c-0.352-1.358-1.323-2.472-2.62-3.006c-0.546-0.225-1.124-0.336-1.699-0.336c-0.792,0-1.58,0.211-2.278,0.626   c-10.843,6.446-35.982,22.858-43.153,40.284c-1.17,2.842-2.122,5.691-2.867,8.517c-0.088-6.899-1.621-14.459-4.743-21.948   c-6.817-16.351-30.37-31.678-40.822-37.853c-0.696-0.411-1.48-0.62-2.269-0.62c-0.581,0-1.165,0.114-1.716,0.344   c-1.298,0.541-2.266,1.662-2.61,3.024c-2.971,11.771-8.663,39.289-1.846,55.641c3.121,7.489,7.41,13.899,12.25,18.816   c-2.531-1.456-5.225-2.787-8.066-3.956c-5.845-2.405-13.033-3.294-20.464-3.295c-14.725,0-30.409,3.49-38.524,5.594   c-1.358,0.352-2.472,1.322-3.006,2.62c-0.534,1.298-0.426,2.771,0.291,3.977c6.446,10.844,22.856,35.982,40.283,43.153   c3.795,1.562,7.604,2.73,11.344,3.541c-8.049,8.607-13.369,23.728-15.818,31.947c-0.407,1.365-0.138,2.842,0.725,3.975   c0.845,1.11,2.158,1.76,3.549,1.76c0.029,0,0.06,0,0.089-0.001c9.701-0.191,28.895-1.57,38.806-9.112   c5.26-4.004,8.552-9.277,11.955-13.615c0.166-0.212,0.342-0.424,0.528-0.637c2.973-3.395,7.242-5.296,11.674-5.296   c0.834,0,1.675,0.067,2.513,0.205c5.29,0.868,9.748,4.407,11.811,9.355l12.894,30.93c0.907,2.174,3.011,3.484,5.227,3.484   c0.727,0,1.465-0.141,2.178-0.438c2.886-1.202,4.249-4.517,3.047-7.402l-12.917-30.983c-2.044-4.904-1.427-10.515,1.635-14.857   c2.904-4.12,7.622-6.557,12.628-6.557c0.271,0,0.544,0.007,0.817,0.021c0.331,0.018,0.652,0.045,0.963,0.081   c4.174,0.484,8.691,1.397,13.502,1.397c1.499,0,3.026-0.089,4.582-0.307C174.974,209.7,189.463,197.037,196.428,190.281z" data-original="#000000" class="active-path" data-old_color="#1abc9c" fill="#1abc9c"/>
</g></g> </svg>
