<?xml version="1.0"?>
<svg xmlns="http://www.w3.org/2000/svg" xmlns:xlink="http://www.w3.org/1999/xlink" version="1.1" id="Capa_1" x="0px" y="0px" viewBox="0 0 205 205" style="enable-background:new 0 0 205 205;" xml:space="preserve" width="512px" height="512px"><g><path d="M185.999,189.273c-0.01,0-0.019,0-0.028,0H65.905c-0.014,0-0.026,0-0.04,0H19.012c-0.006,0-0.014,0-0.02,0H2  c-1.104,0-2-0.896-2-2s0.896-2,2-2h16.094l3.821-4.382c-3.82-1.774-8.165-6.058-8.165-14.578c0-7.15,4.25-14.75,12.125-14.75  c3.207,0,5.446,0.827,6.98,1.824l0.939-4.404c0.189-0.89,0.956-1.539,1.864-1.581c0.911-0.024,1.731,0.535,2.001,1.403l3.22,10.337  l11.195-12.839c0.008-0.009,0.016-0.018,0.023-0.026l10.53-12.076c2.274-2.623,5.574-4.201,9.05-4.325  c3.464-0.132,6.879,1.215,9.339,3.675l10.905,10.905c0.029,0.027,0.058,0.057,0.086,0.086l2.515,2.515l6.285-8.109  c0.016-0.022,0.032-0.044,0.05-0.064l18.766-24.216c2.594-3.26,6.607-5.021,10.729-4.736c4.11,0.286,7.815,2.565,9.925,6.102  l17.618,26.077l2.203-6.712c0.269-0.818,1.032-1.373,1.895-1.376c0.002,0,0.004,0,0.006,0c0.859,0,1.623,0.55,1.896,1.365  l3.897,11.643c2.2-1.559,4.76-2.419,7.456-2.419c7.975,0,14.463,7.668,14.463,17.094c0,6.62-3.26,12.591-8.173,15.399l5.52,8.17H203  c1.104,0,2,0.896,2,2s-0.896,2-2,2h-16.973C186.018,189.273,186.008,189.273,185.999,189.273z M69.967,185.273h112.266l-5.281-7.816  c-0.036-0.049-0.071-0.101-0.104-0.153l-14.327-21.205c-0.038-0.051-0.073-0.104-0.106-0.158l-10.906-16.143  c-0.132,0.259-0.284,0.51-0.46,0.748c-0.836,1.134-2.053,1.823-3.519,1.992c-2.796,0.332-4.591-1.478-6.04-2.922  c-1.601-1.596-2.585-2.48-4.362-2.21c-0.573,0.09-1.012,0.987-1.665,2.455c-1.06,2.379-2.661,5.974-7.487,6.206  c-4.771,0.22-6.609-2.899-7.974-5.185c-1.092-1.828-1.685-2.644-2.774-2.781c-1.549-0.194-2.62,0.699-4.225,2.181  c-1.666,1.537-3.737,3.446-6.821,2.756l-2.965-0.669L69.967,185.273z M23.401,185.273h41.505l27.147-35.029l-1.424-1.424  c-0.758,0.619-1.813,1.318-3.28,2.074c-2.784,1.433-4.6,0.378-5.927-0.39c-1.203-0.698-2.34-1.358-4.981-0.871  c-2.482,0.458-3.734,1.358-5.183,2.401c-1.942,1.396-4.143,2.98-8.911,2.98c-4.647,0-7.532-1.922-9.139-3.926l-11.643,13.353  c-0.016,0.019-0.032,0.037-0.048,0.056l-9.49,10.883c-0.023,0.028-0.047,0.056-0.072,0.083l-4.03,4.622  c-0.02,0.023-0.041,0.048-0.062,0.07L23.401,185.273z M25.875,155.563c-5.604,0-8.125,6.286-8.125,10.75  c0,7.85,4.371,10.432,6.636,11.243v-5.164l-3.327-5.26c-0.59-0.934-0.312-2.169,0.622-2.76c0.933-0.592,2.168-0.312,2.759,0.621  l3.636,5.75c0.202,0.32,0.31,0.69,0.31,1.069v1.656l0.249-0.285l3.268-15.332C31.332,157.084,29.716,155.563,25.875,155.563z   M176.311,169.364l2.983,4.415c3.842-2.019,6.419-6.755,6.419-12.075c0-7.22-4.693-13.094-10.463-13.094  c-2.524,0-4.901,1.129-6.759,3.102c-0.09,0.126-0.193,0.241-0.311,0.344c-0.673,0.773-1.27,1.663-1.771,2.654l5.782,8.559  l-0.954-8.481c-0.124-1.098,0.666-2.088,1.764-2.211c1.094-0.123,2.087,0.665,2.211,1.764l0.989,8.794l3.093-3.827  c0.695-0.859,1.954-0.991,2.813-0.299c0.859,0.694,0.993,1.953,0.299,2.813L176.311,169.364z M35.97,157.96l-1.922,9.017  l3.745-4.294l-1.68-5.393l-0.133,0.626C35.977,157.931,35.974,157.945,35.97,157.96z M160.73,146.303l3.199,4.735  c0.216-0.322,0.441-0.634,0.675-0.935l-2.586-7.726L160.73,146.303z M55.911,147.991c0.663,1.164,2.36,3.024,6.437,3.024  c3.479,0,4.845-0.983,6.575-2.228c1.608-1.156,3.43-2.468,6.794-3.088c4.096-0.752,6.272,0.509,7.713,1.344  c1.11,0.644,1.252,0.726,2.088,0.294c1.051-0.542,1.774-1.004,2.263-1.366l-9.592-9.593c-1.702-1.701-3.964-2.59-6.369-2.506  c-2.405,0.086-4.598,1.135-6.174,2.952L55.911,147.991z M116.8,134.073c0.301,0,0.61,0.02,0.931,0.06  c3.136,0.398,4.56,2.782,5.704,4.698c1.317,2.204,2.113,3.356,4.347,3.24c2.258-0.108,2.968-1.459,4.026-3.838  c0.862-1.936,1.936-4.345,4.699-4.778c3.863-0.608,6.142,1.668,7.807,3.328c1.311,1.308,1.953,1.878,2.757,1.781  c0.448-0.051,0.627-0.217,0.754-0.388c0.541-0.729,0.542-2.266,0.438-3.183l-11.331-16.771c-0.022-0.034-0.045-0.069-0.065-0.104  c-1.456-2.469-3.932-3.999-6.79-4.197c-2.867-0.201-5.522,0.974-7.306,3.216l-16.85,21.741l1.14,0.257  c0.944,0.207,1.67-0.354,3.228-1.793C111.805,135.943,113.83,134.073,116.8,134.073z M179.089,101.55h-27.028  c-3.876,0-7.029-3.153-7.029-7.029s3.153-7.029,7.029-7.029c0.206,0,0.41,0.009,0.614,0.026c0.575-6.583,6.118-11.764,12.849-11.764  c4.812,0,9.169,2.679,11.383,6.833c0.71-0.166,1.439-0.249,2.183-0.249c5.297,0,9.606,4.31,9.606,9.606  S184.386,101.55,179.089,101.55z M152.061,91.491c-1.67,0-3.029,1.359-3.029,3.029s1.359,3.029,3.029,3.029h27.028  c3.092,0,5.606-2.515,5.606-5.605c0-3.092-2.515-5.606-5.606-5.606c-0.843,0-1.653,0.183-2.409,0.544  c-0.515,0.243-1.107,0.259-1.633,0.04c-0.524-0.22-0.931-0.652-1.118-1.189c-1.242-3.576-4.62-5.979-8.405-5.979  c-4.906,0-8.898,3.992-8.898,8.898c0,0.437,0.033,0.882,0.099,1.324c0.114,0.774-0.232,1.544-0.889,1.97  c-0.656,0.429-1.501,0.432-2.161,0.013C153.191,91.653,152.634,91.491,152.061,91.491z M82.508,87.897H35.282  c-8.43,0-15.289-6.858-15.289-15.289s6.859-15.29,15.289-15.29c1.582,0,3.123,0.236,4.604,0.705  c3.412-7.38,10.845-12.209,19.099-12.209c11.521,0,20.909,9.307,21.04,20.797c0.809-0.191,1.642-0.289,2.483-0.289  c5.948,0,10.787,4.839,10.787,10.787S88.456,87.897,82.508,87.897z M35.282,61.318c-6.225,0-11.289,5.064-11.289,11.29  c0,6.225,5.064,11.289,11.289,11.289h47.226c3.742,0,6.787-3.045,6.787-6.788c0-3.742-3.045-6.787-6.787-6.787  c-1.285,0-2.538,0.362-3.623,1.049c-0.66,0.418-1.503,0.413-2.161-0.015c-0.655-0.427-1.001-1.196-0.886-1.97  c0.125-0.84,0.188-1.69,0.188-2.531c0-9.396-7.645-17.041-17.042-17.041c-7.25,0-13.72,4.602-16.099,11.45  c-0.187,0.537-0.593,0.97-1.118,1.189c-0.525,0.218-1.119,0.204-1.632-0.041C38.613,61.687,36.98,61.318,35.282,61.318z   M123.176,77.509c-1.104,0-2-0.896-2-2v-9.616c0-1.104,0.896-2,2-2s2,0.896,2,2v9.616C125.176,76.613,124.28,77.509,123.176,77.509z   M143.605,69.047c-0.512,0-1.023-0.195-1.414-0.586l-6.8-6.8c-0.781-0.781-0.781-2.047,0-2.828s2.047-0.781,2.828,0l6.8,6.8  c0.781,0.781,0.781,2.047,0,2.828C144.629,68.852,144.117,69.047,143.605,69.047z M102.747,69.047c-0.512,0-1.023-0.195-1.414-0.586  c-0.781-0.78-0.781-2.047,0-2.828l6.799-6.8c0.781-0.781,2.047-0.781,2.828,0c0.781,0.78,0.781,2.047,0,2.828l-6.799,6.8  C103.771,68.852,103.259,69.047,102.747,69.047z M123.176,60.024c-7.393,0-13.407-6.015-13.407-13.407s6.015-13.406,13.407-13.406  s13.407,6.014,13.407,13.406S130.568,60.024,123.176,60.024z M123.176,37.211c-5.188,0-9.407,4.22-9.407,9.406  c0,5.188,4.22,9.407,9.407,9.407s9.407-4.22,9.407-9.407C132.583,41.431,128.363,37.211,123.176,37.211z M152.067,48.617h-9.616  c-1.104,0-2-0.896-2-2s0.896-2,2-2h9.616c1.104,0,2,0.896,2,2S153.172,48.617,152.067,48.617z M103.9,48.617h-9.616  c-1.104,0-2-0.896-2-2s0.896-2,2-2h9.616c1.104,0,2,0.896,2,2S105.005,48.617,103.9,48.617z M109.546,34.988  c-0.512,0-1.023-0.195-1.414-0.586l-6.799-6.8c-0.781-0.781-0.781-2.048,0-2.828c0.781-0.781,2.047-0.781,2.828,0l6.799,6.8  c0.781,0.781,0.781,2.048,0,2.828C110.569,34.793,110.058,34.988,109.546,34.988z M136.806,34.988c-0.512,0-1.023-0.195-1.414-0.586  c-0.781-0.781-0.781-2.047,0-2.828l6.8-6.8c0.781-0.781,2.047-0.781,2.828,0s0.781,2.047,0,2.828l-6.8,6.8  C137.829,34.793,137.317,34.988,136.806,34.988z M123.176,29.343c-1.104,0-2-0.896-2-2v-9.616c0-1.104,0.896-2,2-2s2,0.896,2,2  v9.616C125.176,28.447,124.28,29.343,123.176,29.343z" data-original="#000000" class="active-path" data-old_color="#1abc9c" fill="#1abc9c"/></g> </svg>
