<?xml version="1.0"?>
<svg xmlns="http://www.w3.org/2000/svg" height="512px" viewBox="-21 -49 682.55737 682" width="512px"><g><path d="m344.941406 350.253906h-18.742187v-18.742187h18.742187zm-31.242187 0h-18.742188v-18.742187h18.742188zm0 0" data-original="#000000" class="active-path" data-old_color="#1abc9c" fill="#1abc9c"/><path d="m488.75 398.515625-89.800781-132.707031h61.347656l-82.046875-121.246094h40.636719l-98.9375-146.207031-98.941407 146.207031h40.640626l-82.046876 121.246094h61.347657l-89.800781 132.703125h118.789062v182.929687h100.027344v-182.925781zm-302.289062-18.746094 89.804687-132.703125h-61.347656l82.046875-121.246094h-40.640625l63.625-94.019531 63.621093 94.019531h-40.636718l82.046875 121.246094h-61.347657l89.804688 132.703125zm164.757812 182.929688h-62.539062v-164.183594h62.539062zm0 0" data-original="#000000" class="active-path" data-old_color="#1abc9c" fill="#1abc9c"/><path d="m184.214844 516.652344h-55.816406v-149.0625h19.839843v-18.742188h-112.921875l82.375-121.734375h-56.269531l75.265625-111.222656h-37.285156l56.90625-84.089844 53.3125 78.78125 15.523437-10.503906-68.835937-101.722656-92.222656 136.277343h37.285156l-75.265625 111.222657h56.269531l-82.375 121.734375h109.65625v167.804687h93.304688v-111.886719h-18.746094zm0 0" data-original="#000000" class="active-path" data-old_color="#1abc9c" fill="#1abc9c"/><path d="m639.898438 367.589844-82.375-121.734375h56.269531l-75.261719-111.222657h37.28125l-92.222656-136.277343-68.835938 101.722656 15.523438 10.503906 53.3125-78.78125 56.90625 84.089844h-37.28125l75.261718 111.222656h-56.269531l82.375 121.734375h-112.921875v18.742188h19.839844v149.0625h-55.816406v-93.144532h-18.746094v111.886719h93.304688v-167.804687zm0 0" data-original="#000000" class="active-path" data-old_color="#1abc9c" fill="#1abc9c"/></g> </svg>
