<?xml version="1.0"?>
<svg xmlns="http://www.w3.org/2000/svg" xmlns:xlink="http://www.w3.org/1999/xlink" version="1.1" id="Capa_1" x="0px" y="0px" viewBox="0 0 455.344 455.344" style="enable-background:new 0 0 455.344 455.344;" xml:space="preserve" width="512px" height="512px"><g><g>
	<g>
		<path d="M453.672,399.672l-100.8-134.4c-3.2-4-9.6-4-12.8,0l-28,37.6l-25.6,34.4l-110.4-148v-27.2h94.4c3.2,0,6.4-2.4,7.2-4.8    c0.8-3.2,0-6.4-2.4-8.8l-40.8-37.6l40.8-37.6c2.4-2.4,3.2-5.6,2.4-8.8c-1.6-2.4-4-4.8-8-4.8h-93.6v-8.8c0-4.8-3.2-8-8-8    s-8,3.2-8,8v16.8v86.4v35.2l-158.4,210.4c-1.6,2.4-2.4,5.6-0.8,8c1.6,2.4,4,4.8,7.2,4.8h319.2h120c3.2,0,5.6-1.6,7.2-4.8    C456.072,404.472,455.272,402.072,453.672,399.672z M176.072,75.672h73.6l-32,29.6c-1.6,1.6-2.4,4-2.4,5.6c0,1.6,0.8,4.8,2.4,5.6    l32,29.6h-73.6V75.672z M346.472,283.672l21.6,29.6l-6.4,12l-5.6-8.8c-1.6-2.4-4-3.2-6.4-3.2c-2.4,0-4.8,0.8-6.4,3.2l-6.4,7.2    l-8-16L346.472,283.672z M168.072,205.272l38.4,51.2l-17.6,28.8l-14.4-20.8c-1.6-2.4-4-3.2-6.4-3.2c-2.4,0-4.8,0.8-6.4,3.2    l-13.6,16.8l-15.2-29.6L168.072,205.272z M24.072,396.472l97.6-130.4l16.8,33.6c1.6,2.4,4,4,6.4,4c2.4,0,5.6-0.8,7.2-3.2    l14.4-18.4l15.2,22.4c1.6,2.4,4,3.2,6.4,3.2c2.4,0,4.8-1.6,6.4-4l20.8-33.6l94.4,126.4H24.072z M331.272,395.672v0.8l-34.4-46.4    l21.6-28.8l11.2,19.2c1.6,2.4,4,4,6.4,4c2.4,0,4.8-0.8,7.2-3.2l6.4-8l7.2,10.4c1.6,2.4,4,3.2,6.4,3.2c0,0,0,0,0.8,0    c2.4,0,5.6-1.6,6.4-4l8.8-16.8l52,69.6H331.272z" data-original="#000000" class="active-path" data-old_color="#1abc9c" fill="#1abc9c"/>
	</g>
</g></g> </svg>
