<?xml version="1.0"?>
<svg xmlns="http://www.w3.org/2000/svg" height="512px" viewBox="-56 -17 548 548.00207" width="512px"><g><path d="m195.921875 513.488281h-162.109375c-4.316406 0-17.46875 0-19.609375-9.84375-2.140625-9.832031 9.777344-15.269531 13.6875-17.058593l42.691406-19.496094c-14.273437-15.308594-29.328125-37.199219-42.5-61.972656-25.808593-48.523438-42.972656-106.398438-19.683593-118.78125 22.609374-12.046876 55.089843 31.089843 67.992187 50.1875 2.636719 3.902343 1.613281 9.210937-2.292969 11.847656-3.90625 2.640625-9.210937 1.609375-11.851562-2.296875-26.09375-38.632813-43.28125-46.03125-45.835938-44.671875-5.460937 2.902344-2.863281 40.039062 26.730469 95.703125 14.898437 28.011719 32.804687 52.769531 47.917969 66.230469 2.15625 1.917968 3.191406 4.792968 2.761718 7.644531-.429687 2.847656-2.269531 5.289062-4.890624 6.492187l-41.5 18.945313h148.492187c4.710937 0 8.53125 3.824219 8.53125 8.535156s-3.820313 8.535156-8.53125 8.535156zm0 0" data-original="#000000" class="active-path" data-old_color="#1abc9c" fill="#1abc9c"/><path d="m398.308594 513.488281h-162.105469c-4.710937 0-8.535156-3.816406-8.535156-8.53125 0-4.710937 3.824219-8.53125 8.535156-8.53125h148.488281l-41.5-18.949219c-2.621094-1.203124-4.460937-3.644531-4.886718-6.496093-.429688-2.84375.605468-5.726563 2.757812-7.640625 15.109375-13.460938 33.023438-38.21875 47.921875-66.230469 29.597656-55.664063 32.1875-92.796875 26.726563-95.707031-2.558594-1.363282-19.761719 6.074218-45.832032 44.667968-2.636718 3.90625-7.945312 4.9375-11.84375 2.292969-3.914062-2.632812-4.933594-7.9375-2.296875-11.84375 12.90625-19.097656 45.382813-62.199219 67.984375-50.183593 23.292969 12.382812 6.132813 70.257812-19.675781 118.789062-13.175781 24.777344-28.230469 46.660156-42.503906 61.96875l42.6875 19.492188c3.917969 1.792968 15.828125 7.230468 13.691406 17.0625-2.140625 9.839843-15.292969 9.839843-19.613281 9.839843zm0 0" data-original="#000000" class="active-path" data-old_color="#1abc9c" fill="#1abc9c"/><path d="m214.480469 513.75c-84.683594 0-153.585938-69.703125-153.585938-155.382812 0-26.671876 6.949219-52.949219 20.085938-75.988282 2.335937-4.089844 7.542969-5.515625 11.640625-3.183594 4.089844 2.335938 5.515625 7.542969 3.183594 11.640626-11.675782 20.464843-17.847657 43.820312-17.847657 67.53125 0 76.269531 61.246094 138.316406 136.523438 138.316406 75.277343 0 136.523437-62.046875 136.523437-138.316406 0-23.269532-5.957031-46.246094-17.222656-66.433594-2.296875-4.109375-.824219-9.308594 3.292969-11.605469 4.113281-2.300781 9.304687-.824219 11.605469 3.292969 12.683593 22.726562 19.390624 48.574218 19.390624 74.746094 0 85.679687-68.898437 155.382812-153.589843 155.382812zm0 0" data-original="#000000" class="active-path" data-old_color="#1abc9c" fill="#1abc9c"/><path d="m214.480469 513.75c-84.683594 0-153.585938-69.703125-153.585938-155.382812 0-26.671876 6.949219-52.949219 20.085938-75.988282 2.335937-4.089844 7.542969-5.515625 11.640625-3.183594 4.089844 2.335938 5.515625 7.542969 3.183594 11.640626-11.675782 20.464843-17.847657 43.820312-17.847657 67.53125 0 76.269531 61.246094 138.316406 136.523438 138.316406 75.277343 0 136.523437-62.046875 136.523437-138.316406 0-23.269532-5.957031-46.246094-17.222656-66.433594-2.296875-4.109375-.824219-9.308594 3.292969-11.605469 4.113281-2.300781 9.304687-.824219 11.605469 3.292969 12.683593 22.726562 19.390624 48.574218 19.390624 74.746094 0 85.679687-68.898437 155.382812-153.589843 155.382812zm0 0" data-original="#000000" class="active-path" data-old_color="#1abc9c" fill="#1abc9c"/><path d="m214.480469 349.839844c-94.09375 0-170.648438-76.554688-170.648438-170.65625 0-27.3125 6.644531-54.378906 19.261719-78.636719-6.953125-10.6875-10.734375-23.464844-10.734375-36.554687 0-35.285157 26.796875-63.992188 59.730469-63.992188 16.261718 0 31.507812 6.957031 42.714844 19.300781 38.203124-14.296875 81.144531-14.296875 119.347656 0 11.210937-12.34375 26.453125-19.300781 42.71875-19.300781 32.9375 0 59.730468 28.707031 59.730468 63.992188 0 13.085937-3.777343 25.863281-10.738281 36.554687 12.621094 24.257813 19.269531 51.324219 19.269531 78.636719.003907 94.101562-76.554687 170.65625-170.652343 170.65625zm-102.390625-332.777344c-23.523438 0-42.660156 21.054688-42.660156 46.929688 0 11.234374 3.691406 22.125 10.410156 30.660156 2.132812 2.710937 2.421875 6.441406.730468 9.457031-12.871093 22.90625-19.675781 48.871094-19.675781 75.078125 0 84.6875 68.902344 153.589844 153.585938 153.589844 84.691406 0 153.589843-68.902344 153.589843-153.589844 0-26.210938-6.804687-52.171875-19.679687-75.074219-1.6875-3.011719-1.402344-6.742187.726563-9.457031 6.71875-8.539062 10.421874-19.429688 10.421874-30.65625 0-25.878906-19.140624-46.929688-42.664062-46.929688-12.925781 0-25.023438 6.375-33.1875 17.503907-2.332031 3.171875-6.519531 4.34375-10.164062 2.824219-37.550782-15.65625-80.535157-15.65625-118.089844 0-3.636719 1.519531-7.832032.347656-10.164063-2.824219-8.164062-11.128907-20.257812-17.511719-33.179687-17.511719zm0 0" data-original="#000000" class="active-path" data-old_color="#1abc9c" fill="#1abc9c"/><path d="m214.871094 302.910156c-39.464844 0-76.894532-19.082031-100.128906-51.042968-2.777344-3.8125-1.929688-9.148438 1.886718-11.917969 3.800782-2.769531 9.144532-1.925781 11.910156 1.886719 20.039063 27.554687 52.3125 44.003906 86.332032 44.003906 33.820312 0 65.980468-16.292969 86.027344-43.59375 2.792968-3.796875 8.128906-4.617188 11.929687-1.828125 3.796875 2.789062 4.613281 8.132812 1.824219 11.929687-23.25 31.65625-60.554688 50.5625-99.78125 50.5625zm0 0" data-original="#000000" class="active-path" data-old_color="#1abc9c" fill="#1abc9c"/><g fill-rule="evenodd"><path d="m114.414062 28.503906c-17.558593 0-31.796874 17.800782-31.796874 39.757813s14.238281 39.757812 31.796874 39.757812c17.570313 0 31.804688-17.800781 31.804688-39.757812s-14.234375-39.757813-31.804688-39.757813zm2.332032 31.222656c-4.714844 0-8.535156-3.816406-8.535156-8.53125 0-4.710937 3.820312-8.53125 8.535156-8.53125 4.710937 0 8.53125 3.820313 8.53125 8.53125 0 4.714844-3.820313 8.53125-8.53125 8.53125zm0 0" data-original="#000000" class="active-path" data-old_color="#1abc9c" fill="#1abc9c"/><path d="m314.9375 28.023438c-17.78125 0-32.195312 18.011718-32.195312 40.238281 0 22.222656 14.414062 40.234375 32.195312 40.234375 17.777344 0 32.1875-18.011719 32.1875-40.234375 0-22.226563-14.410156-40.238281-32.1875-40.238281zm-1.945312 31.703124c-4.710938 0-8.527344-3.816406-8.527344-8.53125 0-4.710937 3.816406-8.53125 8.527344-8.53125 4.71875 0 8.535156 3.820313 8.535156 8.53125 0 4.714844-3.816406 8.53125-8.535156 8.53125zm0 0" data-original="#000000" class="active-path" data-old_color="#1abc9c" fill="#1abc9c"/></g></g> </svg>
