<?xml version="1.0"?>
<svg xmlns="http://www.w3.org/2000/svg" xmlns:xlink="http://www.w3.org/1999/xlink" version="1.1" id="Capa_1" x="0px" y="0px" viewBox="0 0 463.709 463.709" style="enable-background:new 0 0 463.709 463.709;" xml:space="preserve" width="512px" height="512px"><g><path d="M417.874,146.87c-17.11-63.484-48.83-87.129-72.426-95.785c-27.337-10.028-51.74-3.433-64.333,5.263  c-10.811,7.466-13.626,20.237-14.049,29.859c-0.144-0.024-0.29-0.041-0.435-0.063c2.101-25.194,9.077-61.31,19.177-69.381  c3.667-2.93,4.265-8.279,1.334-11.947c-2.931-3.667-8.28-4.265-11.946-1.334c-9.356,7.477-16.299,23.858-21.225,50.08  c-1.357,7.226-2.35,14.121-3.057,19.858l-4.143-42.537c-0.455-4.672-4.615-8.091-9.284-7.636c-4.672,0.455-8.091,4.612-7.636,9.284  l3.53,36.251c-1.171-1.417-2.376-2.778-3.615-4.086c-2.904-19.595-8.908-43.252-21.283-61.048c-2.68-3.855-7.978-4.806-11.831-2.126  c-3.854,2.68-4.806,7.977-2.126,11.831c7.124,10.246,11.827,23.155,14.93,35.896c-13.84-7.302-28.934-9.871-42.225-7.831  c-18.947,2.902-31.603,12.037-43.841,20.872c-14.509,10.473-27.033,19.521-49.677,18.82c-4.652-0.141-8.499,3.425-8.749,8.035  c-0.251,4.61,3.224,8.577,7.827,8.936c21.641,1.687,47.511,5.224,65.411,7.896c-8.28,8.233-16.363,18.163-24.706,28.414  c-19.927,24.48-40.532,49.794-64.672,52.881c-3.693,0.472-6.649,3.293-7.293,6.959s1.172,7.326,4.482,9.03  c9.911,5.1,21.526,7.004,33.349,7.004c24.807,0,50.521-8.384,63.266-13.214c19.387-7.346,37.245-16.83,51.821-27.226l2.444,18.407  c3.246,24.433,19.661,43.081,42.619,49.201c-0.114,11.593-2.545,23.677-8.323,38.903c-1.143,3.012-0.485,6.411,1.7,8.779  c1.633,1.771,3.91,2.737,6.248,2.737c0.789,0,1.585-0.11,2.366-0.336c1.552-0.45,3.076-0.945,4.585-1.465  c0.368,6.254,0.781,14.826,1.061,25.226c-13.915-14.516-35.958-28.93-58.522-34.41c-21.427-5.204-40.331-1.648-54.667,10.284  c-2.421,2.015-3.53,5.205-2.879,8.287c0.65,3.083,2.952,5.553,5.98,6.419c24.917,7.123,33.163,16.508,51.229,37.069  c3.664,4.169,7.815,8.894,12.492,14.015c14.309,15.668,26.576,20.026,35.799,20.026c4.015,0,7.453-0.827,10.231-1.907  c-0.967,25.335-3.126,53.774-7.36,82.929c-0.675,4.646,2.544,8.959,7.19,9.633c0.414,0.06,0.826,0.09,1.232,0.09  c4.153,0,7.787-3.048,8.401-7.28c2.688-18.504,4.554-36.721,5.82-54.077c0.873,0.55,1.789,1.071,2.759,1.554l0.265,0.133  c3.105,1.585,7.443,3.063,12.814,3.063c9.223,0,21.492-4.36,35.799-20.026c4.676-5.12,8.828-9.846,12.492-14.015  c18.067-20.562,26.313-29.946,51.229-37.069c3.029-0.866,5.331-3.336,5.98-6.419c0.65-3.083-0.458-6.272-2.879-8.287  c-14.336-11.931-33.239-15.487-54.667-10.284c-24.246,5.888-47.902,22.093-61.505,37.654c0.451-33.664-0.994-59.402-1.751-70.23  c19.814-11.723,34.552-30.95,43.187-56.642c6.595-19.623,9.233-42.574,7.429-64.627c-0.823-10.056-2.544-19.449-4.99-27.679  c9.513,2.86,22.594,8.959,39.7,21.393c45.634,33.179,43.418,67.605,43.308,68.983c-0.365,3.732,1.759,7.262,5.227,8.688  c1.049,0.431,2.145,0.639,3.23,0.639c2.503,0,4.945-1.107,6.596-3.136C417.588,212.19,428.745,187.205,417.874,146.87z   M270.166,370.148c7.971-18.84,41.229-38.132,59.73-42.625c8.905-2.162,16.954-2.445,24.088-0.858  c-16.792,8.155-26.569,19.283-40.534,35.176c-3.613,4.112-7.708,8.772-12.274,13.772c-10.983,12.026-21.309,16.867-28.334,13.284  l-0.406-0.204C269.517,387.237,264.083,384.527,270.166,370.148z M242.072,354.554l-0.405,0.204l0,0  c-7.024,3.584-17.351-1.258-28.334-13.284c-4.566-5-8.661-9.66-12.274-13.772c-13.964-15.892-23.742-27.021-40.534-35.176  c7.133-1.587,15.183-1.304,24.088,0.858c27.937,6.784,54.451,30.148,59.73,42.625C250.426,350.389,244.992,353.099,242.072,354.554z   M133.34,76.074c11.093-8.007,21.571-15.57,36.468-17.852c11.9-1.824,25.239,1.447,36.596,8.978c2.275,1.509,4.747,3.372,7.267,5.63  c1.098,8.986,1.526,16.729,1.688,21.825c-18.398-12.628-38.709-14.116-57.254-4.166c-0.627,0.336-1.246,0.709-1.867,1.073  c-7.761-1.242-21.742-3.406-37.588-5.521C123.927,82.869,128.73,79.403,133.34,76.074z M136.603,181.154  c-20.929,7.93-40.917,12.014-57.142,12.014c-0.112,0-0.225,0-0.336,0c17.99-11.725,33.408-30.666,47.554-48.045  c13.733-16.871,26.704-32.806,39.464-39.653c13.142-7.051,26.588-5.89,39.966,3.451c7.167,5.004,9.079,14.652,4.354,21.965  C198.882,148.809,169.891,168.541,136.603,181.154z M213.744,185.993l-3.812-28.71c3.589-3.341,6.803-6.721,9.598-10.108  c0.583,3.707,1.406,7.639,2.505,11.811c2.505,9.516,4.969,18.106,7.144,25.686c3.787,13.201,6.89,24.037,8.68,34.197  C226.44,213.898,216.075,203.541,213.744,185.993z M289.701,216.37c-5.445,16.203-16.114,36.201-36.858,48.049  c7.972-31.122,1.867-52.399-7.324-84.436c-2.15-7.495-4.587-15.991-7.045-25.325c-6.471-24.583-2.641-41.335,11.078-48.445  l0.597-0.314c5.45-2.881,18.208-9.629,34.365,12.058c5.956,7.995,10.362,23.167,11.787,40.587  C297.921,178.35,295.577,198.886,289.701,216.37z M403.53,193.777c-5.763-16.021-18.347-36.855-45.58-56.655  c-21.963-15.963-41.464-24.921-57.981-26.652c-0.594-0.929-1.198-1.829-1.823-2.668c-3.339-4.482-8.021-9.775-13.898-14.057  c-0.493-5.116-0.945-18.25,6.526-23.409c13.85-9.563,34.498-8.544,48.817-3.292c19.825,7.273,46.651,27.793,61.867,84.249  C405.74,167.178,406.408,181.512,403.53,193.777z" data-original="#000000" class="active-path" data-old_color="#1abc9c" fill="#1abc9c"/></g> </svg>
